<?xml version="1.0" encoding="utf-8"?>
<!-- Generator: Adobe Illustrator 23.0.3, SVG Export Plug-In . SVG Version: 6.00 Build 0)  -->
<svg version="1.1" id="Calque_1" xmlns="http://www.w3.org/2000/svg" xmlns:xlink="http://www.w3.org/1999/xlink" x="0px" y="0px"
	 viewBox="0 0 28.8 28.8" style="enable-background:new 0 0 28.8 28.8;" xml:space="preserve">
<g id="HABILLAGE">
	
		<image style="overflow:visible;opacity:0.2;" width="60" height="56" xlink:href="31CFAC44.png"  transform="matrix(0.48 0 0 0.48 0.5896 2.0296)">
	</image>
	<g>
		<g>
			<g id="Logos_9_">
				<g>
					<g>
						<g>
							<path d="M27.6,13.4c-2.1,0.2-3.2-1-3.2-3V8.2h-0.8V6.6h0.8V5h1.8v1.6h1.3v1.6h-1.3v2.3c0,1,0.5,1.4,1.4,1.3
								C27.6,11.8,27.6,13.4,27.6,13.4z"/>
						</g>
						<rect x="16.4" y="2.7" width="11.2" height="1.6"/>
						<rect x="16.4" y="14.2" width="11.2" height="1.6"/>
						<path d="M4.8,13.6c-2.1,0-3.6-1.6-3.6-3.7c0-2,1.5-3.7,3.6-3.7c1.7,0,3,1,3.4,2.5H6.3C6,8.2,5.5,7.8,4.8,7.8
							c-1,0-1.8,1-1.8,2.1s0.8,2,1.8,2c0.7,0,1.2-0.4,1.5-0.9h1.9C7.8,12.6,6.5,13.6,4.8,13.6z"/>
						<path d="M15.8,13.1c0,2.3-1.4,3.8-3.7,3.8c-1.7,0-3.1-1-3.4-2.5h2c0.2,0.6,0.9,0.8,1.4,0.8c1.3,0,1.8-0.8,1.8-2.1v-0.3
							c-0.5,0.5-1.3,0.8-2.1,0.8c-1.8,0-3.4-1.6-3.4-3.7s1.5-3.7,3.4-3.7c0.9,0,1.6,0.3,2.2,0.9V6.3h1.7L15.8,13.1L15.8,13.1z
							 M12.2,7.9c-1,0-1.8,0.9-1.8,2s0.8,2,1.8,2S14,11,14,9.9S13.2,7.9,12.2,7.9z"/>
						<g>
							<path d="M18.1,10.6c0.2,0.9,0.9,1.4,1.8,1.4c0.6,0,1.2-0.3,1.5-0.8h1.9c-0.4,1.4-1.7,2.4-3.4,2.4c-2,0-3.6-1.6-3.6-3.7
								c0-2,1.6-3.7,3.6-3.7c2.1,0,3.8,1.6,3.5,4.4H18.1z M21.7,9.1c-0.2-0.8-0.9-1.3-1.8-1.3c-0.8,0-1.5,0.5-1.7,1.3H21.7z"/>
						</g>
						<g>
							<g>
								<path d="M14.2,19.7c-0.4,0-0.7-0.3-0.7-0.8c0-0.4,0.3-0.8,0.7-0.8c0.3,0,0.6,0.2,0.7,0.5h-0.3c-0.1-0.1-0.2-0.2-0.4-0.2
									c-0.3,0-0.4,0.2-0.4,0.5s0.2,0.5,0.4,0.5s0.3-0.1,0.4-0.2h0.3C14.8,19.5,14.5,19.7,14.2,19.7"/>
								<path d="M15.8,19.1c0-0.2-0.1-0.3-0.3-0.3s-0.3,0.1-0.3,0.3c0,0.2,0.1,0.3,0.3,0.3C15.7,19.5,15.8,19.3,15.8,19.1
									 M16.1,19.1c0,0.3-0.3,0.6-0.6,0.6s-0.6-0.3-0.6-0.6c0-0.3,0.3-0.6,0.6-0.6C15.9,18.5,16.1,18.8,16.1,19.1"/>
								<path d="M18,19.7h-0.3V19c0-0.1,0-0.2-0.2-0.2c-0.1,0-0.2,0.1-0.2,0.2v0.7H17V19c0-0.1,0-0.2-0.2-0.2
									c-0.1,0-0.2,0.1-0.2,0.2v0.7h-0.3v-1.1h0.3v0.1c0.1-0.1,0.2-0.1,0.3-0.1c0.1,0,0.3,0.1,0.3,0.2c0.1-0.1,0.2-0.2,0.3-0.2
									c0.3,0,0.5,0.2,0.5,0.5C18,19.1,18,19.7,18,19.7z"/>
								<path d="M20,19.7h-0.3V19c0-0.1,0-0.2-0.2-0.2c-0.1,0-0.2,0.1-0.2,0.2v0.7H19V19c0-0.1,0-0.2-0.2-0.2
									c-0.1,0-0.2,0.1-0.2,0.2v0.7h-0.3v-1.1h0.3v0.1c0.1-0.1,0.2-0.1,0.3-0.1c0.1,0,0.3,0.1,0.3,0.2c0.1-0.1,0.2-0.2,0.3-0.2
									c0.3,0,0.5,0.2,0.5,0.5C20,19.1,20,19.7,20,19.7z"/>
								<path d="M20.6,19.7h-0.3v-1.1h0.3V19.7z M20.6,18.5h-0.3v-0.3h0.3V18.5z"/>
								<path d="M21.3,19.7c-0.3,0-0.5-0.2-0.5-0.4h0.3c0,0.1,0.2,0.1,0.2,0.1c0.1,0,0.2,0,0.2-0.1s0-0.1-0.2-0.1s-0.5-0.1-0.5-0.3
									c0-0.2,0.2-0.4,0.5-0.4s0.5,0.1,0.5,0.4h-0.3c0-0.1-0.1-0.1-0.2-0.1s-0.2,0-0.2,0.1s0.1,0.1,0.2,0.1c0.3,0,0.5,0.1,0.5,0.4
									C21.8,19.6,21.6,19.7,21.3,19.7"/>
								<path d="M22.5,19.7c-0.3,0-0.5-0.2-0.5-0.4h0.3c0,0.1,0.2,0.1,0.2,0.1c0.1,0,0.2,0,0.2-0.1s0-0.1-0.2-0.1S22,19.1,22,18.9
									c0-0.2,0.2-0.4,0.5-0.4s0.5,0.1,0.5,0.4h-0.3c0-0.1-0.1-0.1-0.2-0.1s-0.2,0-0.2,0.1s0.1,0.1,0.2,0.1c0.3,0,0.5,0.1,0.5,0.4
									C23,19.6,22.8,19.7,22.5,19.7"/>
								<path d="M23.9,19.2c-0.1,0-0.2,0.1-0.3,0.1c-0.1,0-0.2,0-0.2,0.1s0.1,0.1,0.2,0.1c0.2,0,0.3-0.1,0.3-0.2V19.2z M23.9,19.6
									c-0.1,0.1-0.2,0.1-0.3,0.1c-0.2,0-0.5-0.1-0.5-0.4s0.2-0.3,0.5-0.3c0.2,0,0.3,0,0.3-0.1s-0.1-0.1-0.2-0.1s-0.2,0-0.2,0.1
									h-0.3c0-0.2,0.2-0.4,0.5-0.4c0.5,0,0.5,0.3,0.5,0.4v0.6c0,0.1,0,0.1,0,0.2h-0.3C23.9,19.7,23.9,19.6,23.9,19.6"/>
								<path d="M25.1,18.8c-0.1,0-0.2,0-0.3,0.1c-0.1,0.1-0.1,0.2-0.1,0.2v0.6h-0.3v-1.1h0.3v0.1c0.1-0.1,0.2-0.2,0.4-0.1V18.8z"/>
								<path d="M25.5,19.7h-0.3v-1.1h0.3V19.7z M25.5,18.5h-0.3v-0.3h0.3V18.5z"/>
								<path d="M26.5,19.2c-0.1,0-0.2,0.1-0.3,0.1c-0.1,0-0.2,0-0.2,0.1s0.1,0.1,0.2,0.1c0.2,0,0.3-0.1,0.3-0.2V19.2z M26.6,19.6
									c-0.1,0.1-0.2,0.1-0.3,0.1c-0.2,0-0.5-0.1-0.5-0.4S26,19,26.3,19c0.2,0,0.3,0,0.3-0.1s-0.1-0.1-0.2-0.1s-0.2,0-0.2,0.1h-0.3
									c0-0.2,0.2-0.4,0.5-0.4c0.5,0,0.5,0.3,0.5,0.4v0.6c0,0.1,0,0.1,0,0.2h-0.3C26.6,19.7,26.6,19.6,26.6,19.6"/>
								<path d="M27.6,19.7c-0.3,0-0.5-0.2-0.5-0.5v-0.4H27v-0.3h0.1v-0.3h0.3v0.3h0.2v0.3h-0.2v0.4c0,0.2,0.1,0.2,0.2,0.2V19.7z"/>
							</g>
							<g>
								<path d="M20.6,21.3c-0.2,0-0.3,0.1-0.3,0.3c0,0.2,0.1,0.3,0.3,0.3c0.2,0,0.3-0.1,0.3-0.3S20.7,21.3,20.6,21.3 M21.2,22.1
									c0,0.4-0.2,0.6-0.6,0.6c-0.3,0-0.5-0.2-0.5-0.4h0.3c0,0.1,0.2,0.1,0.2,0.1c0.2,0,0.3-0.1,0.3-0.3V22
									c-0.1,0.1-0.2,0.1-0.3,0.1c-0.3,0-0.5-0.3-0.5-0.6c0-0.3,0.2-0.6,0.5-0.6c0.1,0,0.3,0.1,0.3,0.1v-0.1h0.3
									C21.2,20.9,21.2,22.1,21.2,22.1z"/>
								<path d="M22,20.9h-0.2l0.2-0.3h0.3L22,20.9z M22.2,21.5c0-0.1-0.1-0.2-0.3-0.2c-0.1,0-0.2,0.1-0.3,0.2H22.2z M21.6,21.7
									c0,0.1,0.1,0.2,0.3,0.2c0.1,0,0.2,0,0.2-0.1h0.3c-0.1,0.2-0.3,0.4-0.5,0.4c-0.3,0-0.6-0.3-0.6-0.6c0-0.3,0.3-0.6,0.6-0.6
									c0.3,0,0.6,0.3,0.6,0.7H21.6z"/>
								<path d="M23.7,22.2h-0.3v-0.7c0-0.1,0-0.2-0.2-0.2c-0.1,0-0.2,0.1-0.2,0.2v0.7h-0.3v-1.1H23v0.1c0.1-0.1,0.2-0.1,0.3-0.1
									c0.3,0,0.4,0.2,0.4,0.5C23.7,21.6,23.7,22.2,23.7,22.2z"/>
								<path d="M24.6,20.9h-0.2l0.2-0.3h0.3L24.6,20.9z M24.7,21.5c0-0.1-0.1-0.2-0.3-0.2c-0.1,0-0.2,0.1-0.3,0.2H24.7z M24.2,21.7
									c0,0.1,0.1,0.2,0.3,0.2c0.1,0,0.2,0,0.2-0.1H25c-0.1,0.2-0.3,0.4-0.5,0.4c-0.3,0-0.6-0.3-0.6-0.6c0-0.3,0.3-0.6,0.6-0.6
									c0.3,0,0.6,0.3,0.6,0.7H24.2z"/>
								<path d="M25.9,21.3c-0.1,0-0.2,0-0.3,0.1c-0.1,0.1-0.1,0.2-0.1,0.2v0.6h-0.3v-1.1h0.3v0.1c0.1-0.1,0.2-0.2,0.4-0.1V21.3z"/>
								<path d="M26.8,21.6c-0.1,0-0.2,0.1-0.3,0.1c-0.1,0-0.2,0-0.2,0.1s0.1,0.1,0.2,0.1c0.2,0,0.3-0.1,0.3-0.2V21.6z M26.8,22.1
									c-0.1,0.1-0.2,0.1-0.3,0.1c-0.2,0-0.5-0.1-0.5-0.4s0.2-0.3,0.5-0.3c0.2,0,0.3,0,0.3-0.1s-0.1-0.1-0.2-0.1s-0.2,0-0.2,0.1H26
									c0-0.2,0.2-0.4,0.5-0.4c0.5,0,0.5,0.3,0.5,0.4V22c0,0.1,0,0.1,0,0.2h-0.3C26.8,22.2,26.8,22.1,26.8,22.1"/>
								<rect x="27.3" y="20.6" width="0.3" height="1.6"/>
							</g>
							<g>
								<path d="M18.6,24.1c-0.1,0-0.2,0.1-0.3,0.1c-0.1,0-0.2,0-0.2,0.1s0.1,0.1,0.2,0.1c0.2,0,0.3-0.1,0.3-0.2V24.1z M18.4,23.1
									l0.2,0.3h-0.2l-0.3-0.3H18.4z M18.6,24.6c-0.1,0.1-0.2,0.1-0.3,0.1c-0.2,0-0.5-0.1-0.5-0.4S18,24,18.3,24
									c0.2,0,0.3,0,0.3-0.1s-0.1-0.1-0.2-0.1s-0.2,0-0.2,0.1h-0.3c0-0.2,0.2-0.4,0.5-0.4c0.5,0,0.5,0.3,0.5,0.4v0.6
									c0,0.1,0,0.1,0,0.2h-0.3C18.7,24.6,18.6,24.6,18.6,24.6"/>
								<rect x="19.9" y="23" width="0.3" height="1.6"/>
								<path d="M20.7,23.4c0,0.2-0.1,0.3-0.3,0.3v-0.1c0.1,0,0.1-0.1,0.1-0.2l0,0h-0.2v-0.3h0.3v0.3H20.7z"/>
								<path d="M21.4,23.4h-0.2l0.2-0.3h0.3L21.4,23.4z M21.6,24c0-0.1-0.1-0.2-0.3-0.2c-0.1,0-0.2,0.1-0.3,0.2H21.6z M21,24.2
									c0,0.1,0.1,0.2,0.3,0.2c0.1,0,0.2,0,0.2-0.1h0.3c-0.1,0.2-0.3,0.4-0.5,0.4c-0.3,0-0.6-0.3-0.6-0.6c0-0.3,0.3-0.6,0.6-0.6
									c0.3,0,0.6,0.3,0.6,0.7H21z"/>
								<path d="M22.6,23.8c-0.2,0-0.3,0.1-0.3,0.3c0,0.2,0.1,0.3,0.3,0.3c0.2,0,0.3-0.1,0.3-0.3S22.7,23.8,22.6,23.8 M23.1,24.6
									c0,0.4-0.2,0.6-0.6,0.6c-0.3,0-0.5-0.2-0.5-0.4h0.3c0,0.1,0.2,0.1,0.2,0.1c0.2,0,0.3-0.1,0.3-0.3v-0.1
									c-0.1,0.1-0.2,0.1-0.3,0.1c-0.3,0-0.5-0.3-0.5-0.6c0-0.3,0.2-0.6,0.5-0.6c0.1,0,0.3,0.1,0.3,0.1v-0.1h0.3
									C23.1,23.4,23.1,24.6,23.1,24.6z"/>
								<path d="M24.1,24.1c-0.1,0-0.2,0.1-0.3,0.1c-0.1,0-0.2,0-0.2,0.1s0.1,0.1,0.2,0.1c0.2,0,0.3-0.1,0.3-0.2V24.1z M24.1,24.6
									c-0.1,0.1-0.2,0.1-0.3,0.1c-0.2,0-0.5-0.1-0.5-0.4s0.2-0.3,0.5-0.3c0.2,0,0.3,0,0.3-0.1s-0.1-0.1-0.2-0.1s-0.2,0-0.2,0.1
									h-0.3c0-0.2,0.2-0.4,0.5-0.4c0.5,0,0.5,0.3,0.5,0.4v0.6c0,0.1,0,0.1,0,0.2h-0.3C24.1,24.6,24.1,24.6,24.1,24.6"/>
								<rect x="24.7" y="23" width="0.3" height="1.6"/>
								<path d="M25.5,24.7h-0.3v-1.1h0.3V24.7z M25.5,23.4h-0.3v-0.3h0.3V23.4z"/>
								<path d="M26.3,24.7c-0.3,0-0.5-0.2-0.5-0.5v-0.4h-0.1v-0.3h0.1v-0.3h0.3v0.3h0.2v0.3h-0.2v0.4c0,0.2,0.1,0.2,0.2,0.2V24.7z"
									/>
								<path d="M27.2,23.4H27l0.2-0.3h0.3L27.2,23.4z M27.3,24c0-0.1-0.1-0.2-0.3-0.2c-0.1,0-0.2,0.1-0.3,0.2H27.3z M26.8,24.2
									c0,0.1,0.1,0.2,0.3,0.2c0.1,0,0.2,0,0.2-0.1h0.3c-0.1,0.2-0.3,0.4-0.5,0.4c-0.3,0-0.6-0.3-0.6-0.6c0-0.3,0.3-0.6,0.6-0.6
									c0.3,0,0.6,0.3,0.6,0.7H26.8z"/>
							</g>
							<g>
								<path d="M13.9,26.3c-0.2,0-0.3,0.1-0.3,0.3c0,0.2,0.1,0.3,0.3,0.3s0.3-0.1,0.3-0.3S14,26.3,13.9,26.3 M14.5,27.1h-0.3V27
									c-0.1,0.1-0.2,0.1-0.3,0.1c-0.3,0-0.5-0.3-0.5-0.6c0-0.3,0.2-0.6,0.5-0.6c0.1,0,0.2,0,0.3,0.1v-0.6h0.3V27.1z"/>
								<path d="M15.5,26.5c0-0.1-0.1-0.2-0.3-0.2c-0.1,0-0.2,0.1-0.3,0.2H15.5z M15,26.7c0,0.1,0.1,0.2,0.3,0.2
									c0.1,0,0.2,0,0.2-0.1h0.3c-0.1,0.2-0.3,0.4-0.5,0.4c-0.3,0-0.6-0.3-0.6-0.6c0-0.3,0.3-0.6,0.6-0.6s0.6,0.3,0.6,0.7H15z"/>
								<path d="M16.5,27.2c-0.3,0-0.5-0.2-0.5-0.4h0.3c0,0.1,0.2,0.1,0.2,0.1c0.1,0,0.2,0,0.2-0.1s0-0.1-0.2-0.1S16,26.6,16,26.4
									c0-0.2,0.2-0.4,0.5-0.4s0.5,0.1,0.5,0.4h-0.3c0-0.1-0.1-0.1-0.2-0.1s-0.2,0-0.2,0.1s0.1,0.1,0.2,0.1c0.3,0,0.5,0.1,0.5,0.4
									C17,27,16.8,27.2,16.5,27.2"/>
								<path d="M18.4,27.1c-0.3,0-0.5-0.2-0.5-0.5v-0.4h-0.1V26h0.1v-0.3h0.3V26h0.2v0.3h-0.2v0.4c0,0.2,0.1,0.2,0.2,0.2V27.1z"/>
								<path d="M19.4,26.5c0-0.1-0.1-0.2-0.3-0.2c-0.1,0-0.2,0.1-0.3,0.2H19.4z M18.8,26.7c0,0.1,0.1,0.2,0.3,0.2
									c0.1,0,0.2,0,0.2-0.1h0.3c-0.1,0.2-0.3,0.4-0.5,0.4c-0.3,0-0.6-0.3-0.6-0.6c0-0.3,0.3-0.6,0.6-0.6c0.3,0,0.6,0.3,0.6,0.7
									H18.8z"/>
								<path d="M20.5,26.3c-0.1,0-0.2,0-0.3,0.1c-0.1,0.1-0.1,0.2-0.1,0.2v0.6h-0.3V26h0.3v0.1c0.1-0.1,0.2-0.2,0.4-0.1V26.3z"/>
								<path d="M21.3,26.3c-0.1,0-0.2,0-0.3,0.1c-0.1,0.1-0.1,0.2-0.1,0.2v0.6h-0.3V26h0.3v0.1C21,26,21.2,26,21.3,26V26.3z"/>
								<path d="M21.5,27.1h0.3V26h-0.3V27.1z M21.5,25.9h0.3v-0.3h-0.3V25.9z"/>
								<path d="M22.6,27.1c-0.3,0-0.5-0.2-0.5-0.5v-0.4H22V26l0,0v-0.3h0.3V26h0.2v0.3h-0.2v0.4c0,0.2,0.1,0.2,0.2,0.2v0.2H22.6z"
									/>
								<path d="M23.5,26.6c0-0.2-0.1-0.3-0.3-0.3c-0.2,0-0.3,0.1-0.3,0.3c0,0.2,0.1,0.3,0.3,0.3S23.5,26.8,23.5,26.6 M23.8,26.6
									c0,0.3-0.3,0.6-0.6,0.6c-0.3,0-0.6-0.3-0.6-0.6c0-0.3,0.3-0.6,0.6-0.6C23.6,26,23.8,26.2,23.8,26.6"/>
								<path d="M24,27.1h0.3V26H24V27.1z M24,25.9h0.3v-0.3H24V25.9z"/>
								<path d="M25.2,26.3c-0.1,0-0.2,0-0.3,0.1c-0.1,0.1-0.1,0.2-0.1,0.2v0.6h-0.3V26h0.3v0.1C25,26,25.1,26,25.2,26V26.3z"/>
								<path d="M26.2,26.5c0-0.1-0.1-0.2-0.3-0.2c-0.1,0-0.2,0.1-0.3,0.2H26.2z M25.6,26.7c0,0.1,0.1,0.2,0.3,0.2
									c0.1,0,0.2,0,0.2-0.1h0.3c-0.1,0.2-0.3,0.4-0.5,0.4c-0.3,0-0.6-0.3-0.6-0.6c0-0.3,0.3-0.6,0.6-0.6c0.3,0,0.6,0.3,0.6,0.7
									H25.6z"/>
								<path d="M27.1,27.2c-0.3,0-0.5-0.2-0.5-0.4h0.3c0,0.1,0.2,0.1,0.2,0.1c0.1,0,0.2,0,0.2-0.1s0-0.1-0.2-0.1s-0.5-0.1-0.5-0.3
									c0-0.2,0.2-0.4,0.5-0.4s0.5,0.1,0.5,0.4h-0.3c0-0.1-0.1-0.1-0.2-0.1s-0.2,0-0.2,0.1s0.1,0.1,0.2,0.1c0.3,0,0.5,0.1,0.5,0.4
									C27.6,27,27.4,27.2,27.1,27.2"/>
							</g>
						</g>
					</g>
				</g>
			</g>
		</g>
	</g>
</g>
</svg>
