<?xml version="1.0" encoding="utf-8"?>
<!-- Generator: Adobe Illustrator 23.0.3, SVG Export Plug-In . SVG Version: 6.00 Build 0)  -->
<svg version="1.1" xmlns="http://www.w3.org/2000/svg" xmlns:xlink="http://www.w3.org/1999/xlink" x="0px" y="0px"
	 viewBox="0 0 24 24" style="enable-background:new 0 0 24 24;" xml:space="preserve">
<style type="text/css">
	.st0{opacity:0.5;}
	.st1{fill:none;stroke:#FFFFFF;stroke-miterlimit:10;}
	.st2{fill:#FFFFFF;}
	.st3{display:none;}
	.st4{display:inline;}
</style>
<g id="Calque_1">
	<title>user, interface, ui, web, Arrange, layer, layers</title>
	<title>user, interface, ui, web, Arrange, layer, layers</title>
	<g class="st0">
		<g>
			<g>
				<line class="st1" x1="11.5" y1="2.6" x2="11.5" y2="16.5"/>
				<g>
					<polygon class="st2" points="7.4,13.2 8.1,12.5 11.5,16.1 14.8,12.5 15.6,13.2 11.5,17.6 					"/>
				</g>
			</g>
		</g>
		<polyline class="st1" points="19.9,18.2 19.9,20.8 3.7,20.8 3.7,18.2 		"/>
	</g>
</g>
<g id="Calque_2" class="st3">
	<g class="st4">
		<path d="M12,13c-0.1,0-0.3,0-0.4-0.1l-9-4C2.1,8.7,1.9,8.1,2.1,7.6c0.1-0.2,0.3-0.4,0.5-0.5l9-4c0.3-0.1,0.6-0.1,0.8,0l9,4
			c0.5,0.2,0.7,0.8,0.5,1.3c-0.1,0.2-0.3,0.4-0.5,0.5l-9,4C12.3,13,12.1,13,12,13z M5.5,8l6.5,2.9L18.5,8L12,5.1L5.5,8z M12.5,16.9
			l9-4c0.5-0.3,0.7-0.9,0.4-1.4c-0.2-0.4-0.8-0.6-1.2-0.5L12,14.9l-8.6-3.8c-0.5-0.2-1.1,0.1-1.3,0.6c-0.2,0.5,0,1,0.5,1.2l9,4
			C11.9,17,12.1,17,12.5,16.9L12.5,16.9z M12.5,20.9l9-4c0.5-0.3,0.7-0.9,0.4-1.4c-0.2-0.4-0.8-0.6-1.2-0.5L12,18.9l-8.6-3.8
			c-0.5-0.2-1.1,0.1-1.3,0.6c-0.2,0.5,0,1,0.5,1.2l9,4C11.9,21,12.1,21,12.5,20.9L12.5,20.9z"/>
	</g>
</g>
</svg>
