<?xml version="1.0" encoding="utf-8"?>
<!-- Generator: Adobe Illustrator 23.0.3, SVG Export Plug-In . SVG Version: 6.00 Build 0)  -->
<svg version="1.1" id="Calque_1" xmlns="http://www.w3.org/2000/svg" xmlns:xlink="http://www.w3.org/1999/xlink" x="0px" y="0px"
	 viewBox="0 0 19.2 19.2" style="enable-background:new 0 0 19.2 19.2;" xml:space="preserve">
<style type="text/css">
	.st0{fill:#D57222;}
</style>
<g>
	<path class="st0" d="M17.5,16.7c0,0.5-0.4,0.9-0.9,0.9H2.6c-0.5,0-0.9-0.4-0.9-0.9V2.6c0-0.5,0.4-0.9,0.9-0.9h5.6V0H2.6
		C1.1,0,0,1.1,0,2.6v14.1c0,1.4,1.1,2.6,2.6,2.6h14.1c1.4,0,2.6-1.1,2.6-2.6v-5.6h-1.7V16.7z"/>
	<polygon class="st0" points="11.1,0 11.1,1.7 16.3,1.7 9.6,8.4 10.8,9.6 17.5,2.9 17.5,8.1 19.2,8.1 19.2,0 	"/>
</g>
</svg>
