<?xml version="1.0" encoding="utf-8"?>
<!-- Generator: Adobe Illustrator 23.0.6, SVG Export Plug-In . SVG Version: 6.00 Build 0)  -->
<svg version="1.1" id="Calque_1" xmlns="http://www.w3.org/2000/svg" xmlns:xlink="http://www.w3.org/1999/xlink" x="0px" y="0px"
	 viewBox="0 0 30.5 30.6" style="enable-background:new 0 0 30.5 30.6;" xml:space="preserve">
<g>
	<path d="M16.8,30.5c-0.1,0-0.1,0-0.2-0.1c0,0-0.1-0.1-0.2-0.1c-0.1,0-0.4,0-0.5,0c-0.1,0-0.4,0.1-0.5,0c0,0-0.1-0.1-0.1-0.1
		c0,0,0-0.1,0-0.1c0,0,0,0,0-0.1c0,0-0.1,0-0.1,0c-0.1,0-0.2,0-0.3,0c-0.1,0-0.2-0.1-0.2-0.2c0-0.1-0.1-0.1-0.1-0.2
		c0,0-0.2-0.1-0.4-0.1c-0.2,0-0.4-0.1-0.5-0.2c0-0.1-0.1-0.2-0.2-0.2c-0.1,0-0.2-0.1-0.3-0.2c-0.1-0.1-0.2-0.1-0.4-0.1
		c-0.1,0-0.3,0-0.4,0c0,0-0.2-0.1-0.3-0.1c-0.1,0-0.3-0.1-0.3-0.1c0,0,0,0.1,0,0.2c0,0,0,0.1,0,0.1c-0.1,0.1-0.2,0.2-0.5,0.2
		c-0.2,0-0.5,0-0.6-0.1c0,0-0.1-0.1-0.2-0.1c-0.1,0-0.3,0-0.4,0c-0.1,0-0.3,0-0.4-0.1c0-0.1-0.1-0.2-0.2-0.2
		c-0.1-0.1-0.2-0.1-0.3-0.1l0,0c-0.1,0-0.3,0-0.4,0.1c-0.1,0.1-0.4,0-0.5-0.1c-0.1-0.1-0.3-0.3-0.3-0.4c0-0.1-0.1-0.1-0.1-0.1l0,0
		c-0.1,0-0.4-0.1-0.7-0.2c-0.3-0.1-0.6-0.3-0.7-0.4c-0.1-0.1-0.1-0.2-0.1-0.4c0-0.1-0.1-0.2-0.3-0.2c-0.2,0-0.4-0.1-0.5-0.2
		c0,0-0.1-0.1,0-0.1c0,0,0.1-0.1,0.1-0.1c0.1,0,0.2-0.1,0.3-0.2c0.1-0.1,0.2-0.3,0.4-0.6c0.1-0.3,0.3-1,0.5-1.8
		c0.1-0.6,0.3-1.4,0.4-1.5c0.1-0.1,0.1-0.2,0.2-0.3c0,0,0,0,0-0.1c0,0-0.1-0.1-0.1-0.1c-0.2-0.1-0.1-0.8,0-1.2
		c0.1-0.6,0.3-1.2,0.3-1.4c0-0.1,0-0.1,0.1-0.1c0.1,0,0.2,0,0.3,0.1c0.2,0.1,0.4,0.5,0.4,0.8c0.1,0.3,0.2,0.6,0.2,0.6
		c0,0.1,0.1,0.3,0.2,0.4c0,0.1,0.1,0.1,0.1,0.1c0,0,0,0,0-0.1c0-0.1,0-0.4-0.1-0.5S9.1,20.3,9.1,20S8.7,19.2,8.5,19
		c-0.2-0.2-0.5-0.4-0.6-0.5c0-0.1,0-0.3,0.2-0.4c0.1-0.1,0.2-0.2,0.2-0.3c0-0.1,0-0.2,0-0.3c0-0.1,0-0.2-0.1-0.3
		c0-0.1-0.1-0.2-0.1-0.2c0-0.1,0-0.2,0.1-0.3v0c0-0.1-0.1-0.2-0.3-0.2c-0.2-0.1-0.5-0.2-0.6-0.3c-0.1-0.1-0.2-0.2-0.4-0.3
		c-0.2-0.1-0.3-0.3-0.3-0.4c0-0.1-0.2-0.4-0.3-0.6c-0.2-0.2-0.3-0.5-0.2-0.7c0.1-0.2,0.1-0.3,0-0.4c0-0.1-0.1-0.2-0.2-0.2
		c-0.1,0-0.1-0.1-0.1-0.2c0,0,0-0.1,0.1-0.1c0.1,0,0.1-0.1,0.2-0.2c0,0,0,0,0-0.1c0,0-0.1,0-0.1,0c-0.1,0-0.3,0-0.5,0
		c-0.1,0-0.3-0.2-0.3-0.3c0-0.1,0-0.1,0-0.2c0-0.1,0.1-0.1,0.2-0.2s0.1-0.1,0.1-0.1s0,0,0-0.1c-0.1-0.1-0.3-0.1-0.4-0.1c0,0,0,0,0,0
		c-0.2,0-0.4-0.1-0.4-0.2c0-0.1-0.1-0.1-0.3-0.1c-0.2,0-0.4,0-0.5-0.1c-0.1-0.1-0.2-0.2-0.1-0.4c0,0,0-0.1,0-0.1s-0.1,0-0.2,0
		c-0.2,0-0.4,0-0.5-0.1c-0.1-0.1-0.3-0.2-0.5-0.2C2.3,11.1,2,11,2,10.9c-0.1,0-0.3-0.1-0.4-0.2c-0.1,0-0.1,0-0.2,0c0,0,0,0,0,0
		c0,0.1-0.2,0.2-0.3,0.2c-0.1,0-0.3-0.1-0.3-0.2c0-0.1,0-0.2-0.1-0.3c0,0-0.1-0.1-0.3-0.2S0.2,10.1,0.1,10c0,0-0.1-0.1-0.1-0.1
		s0-0.1,0.1-0.1c0.1,0,0.4,0,0.6,0c0.2,0,0.4,0,0.4,0c0,0,0-0.1-0.1-0.2c0,0-0.1-0.1-0.2,0c-0.1,0-0.3,0-0.3-0.1c0-0.1,0-0.2,0-0.3
		C0.6,9.2,0.8,9.1,1,9.1c0,0,0.1,0,0.1,0l0,0C1,9.1,0.9,9,0.9,9c0,0,0-0.1,0.1-0.1c0,0,0.1-0.1,0.1-0.1h0L1,8.8c0,0-0.2,0-0.3,0.1
		c-0.2,0-0.4,0-0.5,0S0,8.9,0,8.8c0-0.1,0-0.2,0-0.2c0,0,0-0.1,0-0.2c0-0.1,0.2-0.2,0.4-0.3C0.6,8,0.9,7.9,1,7.9
		c0.1,0,0.3,0,0.5-0.1c0.2,0,0.3-0.1,0.4-0.1c0,0,0.1,0,0.2,0.1c0.1,0,0.2,0.1,0.2,0.1l0,0l0,0c0,0,0.1-0.1,0.1-0.1
		c0.1-0.1,0.2,0,0.3,0c0.1,0,0.2,0,0.2-0.1c0-0.1,0.1-0.2,0.1-0.2c0-0.1,0.5-0.1,0.6-0.1h0c0.3,0,0.6,0.2,0.8,0.3
		c0.1,0.1,0.3,0.4,0.3,0.5c0,0,0.1,0.1,0.2,0.2c0.1,0.1,0.3,0.1,0.5,0c0.2-0.1,0.5-0.2,0.6-0.1c0.1,0,0.2,0,0.3,0
		c0.1,0,0.2-0.1,0.2-0.1c0.1,0,0.2-0.1,0.3-0.1c0.1,0,0.1,0,0.2,0.1c0,0,0,0,0,0.1c0,0,0,0.1,0,0.1c0,0,0.1,0.1,0.3,0
		c0.2,0,0.4,0,0.6,0c0.1,0,0.1,0,0.1,0s0,0,0-0.1C7.6,8.2,7.5,8,7.5,7.9c0-0.1,0-0.4,0-0.5c0.1-0.2,0-0.3,0-0.3
		C7.4,7,7.4,6.8,7.4,6.7V6.3c0,0-0.1-0.2-0.2-0.3C7.1,5.9,7,5.8,7,5.7c0,0,0-0.1-0.1-0.2c-0.1-0.1,0-0.2,0-0.3C7,5.1,7,5,7,5
		c-0.1,0-0.1-0.1-0.2-0.2c0,0,0-0.1,0-0.1c0,0,0.1-0.1,0.1-0.1c0.1,0,0.3,0,0.5,0.1s0.3,0.1,0.4,0.1c0.1,0,0.2-0.1,0.3-0.1
		c0.1,0,0.3,0.1,0.3,0.1c0.1,0.1,0,0.2,0,0.3c0,0.1,0,0.2,0,0.3s0.1,0.3,0.2,0.5c0,0.1,0,0.1,0,0.1s0,0,0,0c0.1-0.1,0.3-0.2,0.5-0.1
		c0.2,0,0.5,0.1,0.6,0.1S10.2,6,10.4,6c0.2,0.1,0.6,0,0.7-0.1c0.2-0.1,0.5-0.2,0.6-0.3c0.1,0,0.2-0.1,0.2-0.1c0,0-0.1,0-0.2,0
		c0,0,0,0,0,0c-0.2,0-0.4,0-0.4-0.1c-0.1-0.1-0.1-0.3,0-0.4c0.1-0.2,0.3-0.4,0.6-0.6c0.2-0.1,0.7-0.3,1.1-0.4
		c0.4-0.1,0.7-0.2,0.8-0.3s0.2-0.1,0.3-0.2c0.1,0,0.2-0.2,0.3-0.4C14.5,3.1,14.6,3,14.8,3c0,0,0.1,0,0.1,0c0,0,0-0.1,0-0.2
		c-0.1-0.2-0.1-0.7-0.1-1.2c0-0.1,0-0.8,0.1-0.9c0,0,0.1-0.1,0.2-0.2c0.1-0.1,0.3-0.2,0.3-0.2s0.5-0.1,0.8-0.2C16.5,0,16.9,0,17,0.1
		l0,0c0.1,0.1,0.1,0.3,0.1,0.5c0,0.1,0.1,0.3,0.3,0.4c0.1,0.1,0.3,0.1,0.3,0.1C17.8,1,18,1,18.1,0.9c0.1,0,0.3,0.1,0.3,0.2
		c0.1,0.1,0.2,0.4,0.2,0.5c0.1,0.1,0.2,0.2,0.3,0.2c0.1,0,0.3,0.1,0.4,0.3c0.1,0.1,0.2,0.3,0.3,0.3c0.1,0,0.3,0,0.4,0
		c0.1,0,0.3,0,0.5,0.1c0.1,0,0.2,0.1,0.2,0.2c0,0,0,0.1,0,0.1c0,0-0.1,0.2-0.1,0.4c0,0.2,0,0.3,0.1,0.4c0,0.1,0.2,0.2,0.4,0.2
		c0.2,0.1,0.3,0,0.4,0c0.1,0,0.2-0.1,0.2-0.2c0,0,0,0,0-0.1c0,0,0,0,0-0.1c-0.1-0.1,0-0.2,0.1-0.3c0.1-0.1,0.3-0.2,0.4-0.1
		c0,0,0,0,0,0.1c0,0.1,0,0.2-0.1,0.3S22,3.9,22,4c0.1,0.2,0.2,0.3,0.2,0.3c0.1,0,0.3,0.2,0.5,0.3s0.4,0.4,0.5,0.5
		c0.1,0.1,0.3,0.2,0.5,0.1c0.2-0.1,0.4-0.1,0.5,0c0.1,0.1,0.2,0.1,0.3,0.2c0.1,0,0.3,0,0.3,0c0.1-0.1,0.4-0.1,0.6-0.1
		c0.2,0,0.6,0.3,0.7,0.6c0.1,0.2,0.2,0.3,0.3,0.3c0,0,0.1,0,0.1,0c0.1-0.1,0.3,0,0.5,0.1c0.1,0.1,0.3,0.2,0.3,0.2s0.3,0,0.5-0.1
		c0.2-0.1,0.5,0,0.6,0.1c0.1,0.1,0.4,0.2,0.6,0.2c0.2,0,0.5,0,0.6,0.1c0.1,0,0.1,0.1,0.2,0.1c0,0.1,0,0.2,0,0.3
		c-0.1,0.2-0.2,0.4-0.3,0.5c-0.1,0.1-0.2,0.4-0.3,0.6C29.1,8.5,29,8.8,29,9c-0.1,0.2-0.2,0.5-0.2,0.7c-0.1,0.2-0.1,0.4-0.1,0.5
		c0,0.1,0,0.4,0,0.6c0,0.2,0,0.5,0,0.6s0,0.3,0,0.4c0,0.1-0.1,0.3-0.2,0.4c-0.1,0.1-0.3,0.2-0.4,0.2c-0.1,0-0.3-0.1-0.3-0.1
		c-0.1,0-0.2,0-0.4,0.1c-0.1,0.1-0.1,0.2-0.2,0.2l0,0c0.1,0,0.2,0.1,0.3,0.2c0,0.1-0.2,0.4-0.3,0.6c-0.2,0.2-0.5,0.5-0.6,0.7
		c-0.2,0.1-0.3,0.4-0.4,0.5c0,0.2-0.2,0.4-0.3,0.6c-0.2,0.2-0.3,0.4-0.4,0.6c-0.1,0.2-0.1,0.5-0.1,0.6c0,0.2,0,0.4-0.1,0.4l0,0
		c0,0,0,0.1,0,0.1c0,0,0,0,0.1,0l0,0c0.1,0,0.2-0.1,0.2-0.2c0.1-0.2,0.2-0.3,0.2-0.4c0-0.1,0.2-0.3,0.4-0.3c0.2-0.1,0.5-0.1,0.6-0.1
		c0.1,0,0.3,0.3,0.3,0.5c0,0.2,0.1,0.5,0.2,0.6s0.2,0.3,0.3,0.4c0.1,0.1,0,0.4-0.1,0.5c-0.2,0.1-0.3,0.3-0.3,0.3
		c0,0,0.1,0.2,0.2,0.3c0.2,0.1,0.3,0.3,0.3,0.4c0,0.1,0.1,0.2,0.2,0.3c0.1,0.1,0.2,0.4,0.2,0.5c0,0.1-0.1,0.3-0.2,0.4
		c0,0-0.1,0.1-0.2,0.2c-0.1,0.1-0.3,0.2-0.5,0.1s-0.3,0-0.3,0.1c0,0.1,0,0.2,0,0.3c0.1,0.1,0.2,0.2,0.2,0.3c0,0,0.1,0.1,0.3,0.2
		s0.4,0.2,0.4,0.3c0,0.1,0,0.3-0.1,0.4c-0.1,0.1-0.1,0.3-0.2,0.4c0,0.1,0,0.3,0,0.4c0,0.1,0.1,0.3,0.1,0.4c0.1,0.1,0.2,0.2,0.2,0.2
		c0.1,0,0.2,0,0.3,0.1c0.1,0.1,0.2,0.1,0.2,0.1c0,0,0.1,0.1,0.2,0.1c0.1,0,0.3,0,0.4-0.1c0.2-0.1,0.4-0.1,0.5,0
		c0.1,0.1,0.1,0.3,0,0.5c-0.1,0.1-0.2,0.3-0.3,0.4c0,0.1-0.1,0.2-0.1,0.3c0,0.1-0.2,0.3-0.4,0.5c-0.2,0.1-0.5,0.4-0.7,0.6
		c-0.2,0.2-0.4,0.5-0.6,0.6c-0.1,0.1-0.3,0.4-0.3,0.5c0,0.1,0,0.2-0.1,0.3c0,0-0.1,0.1-0.2,0.1c-0.1,0-0.2,0-0.3,0
		c0,0-0.2,0.1-0.3,0.1c-0.1,0-0.3,0.1-0.4,0.2c-0.1,0.1-0.3,0.1-0.5-0.1h-0.1c-0.2,0-0.4,0-0.5,0c0,0-0.2-0.2-0.5-0.2
		c-0.2-0.1-0.5-0.2-0.6-0.2c0,0-0.1-0.1-0.2-0.2c0-0.1-0.1-0.1-0.2-0.1c-0.1,0-0.3,0-0.4,0c-0.1,0-0.2,0-0.2-0.1c0,0,0-0.1,0-0.1
		c0.1-0.1,0.2-0.2,0.3-0.2c0,0-0.1-0.1-0.3-0.1s-0.4,0-0.4,0.1c0,0,0,0.1,0,0.1c0,0.1,0,0.2-0.1,0.2c-0.1,0.1-0.2,0.1-0.2,0.1
		c-0.1,0-0.3,0-0.3-0.1c0,0,0-0.1,0-0.1c0,0,0-0.1-0.1-0.1c0,0-0.2,0-0.3,0c-0.2,0-0.4,0-0.5-0.1c-0.1-0.1-0.3-0.2-0.3-0.2
		c0,0-0.1-0.1-0.2-0.1c-0.1,0-0.3,0.1-0.5,0.3c-0.2,0.2-0.4,0.3-0.5,0.4c-0.1,0-0.2,0.1-0.3,0.2S19,27,18.9,27l0,0
		c-0.1,0-0.3,0.1-0.5,0.4c-0.2,0.2-0.3,0.5-0.3,0.6c0,0.1,0,0.2,0,0.3c0,0-0.1,0-0.1,0h0c0,0,0,0.1,0,0.1c0,0.1,0,0.2,0.1,0.2
		c0.1,0.1,0.1,0.3,0.1,0.5c0,0.2,0.1,0.5,0.2,0.6c0,0,0.2,0.2,0.1,0.3c0,0,0,0,0,0.1c-0.1,0-0.2,0-0.3,0c-0.1,0-0.3,0-0.5,0.2
		c-0.2,0.1-0.4,0.2-0.5,0.2c-0.1,0-0.2,0-0.2,0C17,30.5,16.9,30.5,16.8,30.5z M27.2,12.7L27.2,12.7L27.2,12.7z"/>
</g>
</svg>
