<?xml version="1.0" encoding="utf-8"?>
<!-- Generator: Adobe Illustrator 23.0.3, SVG Export Plug-In . SVG Version: 6.00 Build 0)  -->
<svg version="1.1" id="Calque_1" xmlns="http://www.w3.org/2000/svg" xmlns:xlink="http://www.w3.org/1999/xlink" x="0px" y="0px"
	 viewBox="0 0 20 20.6" style="enable-background:new 0 0 20 20.6;" xml:space="preserve">
<style type="text/css">
	.st0{fill:#4F4F4F;}
</style>
<polyline class="st0" points="13.2,3.2 12.6,2.2 11.9,1.6 11.4,1.3 10.3,1.1 7.6,3.9 4.2,5.6 0.5,6 0.7,7.6 3.2,8.6 4.4,9.4 
	4.7,10.5 4.8,11.6 4.8,13.9 4.1,16.2 3.8,16.9 5.4,18.3 6.5,18.8 8.3,19.6 10.9,19.6 11.8,18.5 12.3,17.6 14.6,17.2 16,17.2 
	17.2,17.4 18.4,17.4 19.2,16.9 18.9,15.1 18,13.6 17.4,12.3 16.7,11.7 16.3,10.3 16.3,9.6 17,8.8 17.8,8.1 18.4,7.4 18.8,6.6 
	19.2,5.9 19.4,4.9 17.3,4.4 "/>
</svg>
