<?xml version="1.0" encoding="utf-8"?>
<!-- Generator: Adobe Illustrator 23.0.3, SVG Export Plug-In . SVG Version: 6.00 Build 0)  -->
<svg version="1.1" id="Calque_1" xmlns="http://www.w3.org/2000/svg" xmlns:xlink="http://www.w3.org/1999/xlink" x="0px" y="0px"
	 viewBox="0 0 114.6 31.7" style="enable-background:new 0 0 114.6 31.7;" xml:space="preserve">
<style type="text/css">
	.st0{fill:#D6741E;}
</style>
<g>
	<g>
		<path d="M8.7,20.7l5-17.8h3l-6.9,22H7.5l-6.8-22h3L8.7,20.7z"/>
		<path d="M22.5,4.2c0,0.5-0.1,0.8-0.4,1.1S21.5,5.8,21,5.8c-0.5,0-0.9-0.2-1.1-0.5c-0.3-0.3-0.4-0.7-0.4-1.1s0.1-0.8,0.4-1.2
			c0.3-0.3,0.6-0.5,1.1-0.5s0.9,0.2,1.1,0.5C22.4,3.4,22.5,3.7,22.5,4.2z M22.3,24.9h-2.7V8.5h2.7V24.9z"/>
		<path d="M28.9,22.5h10.5v2.4H25.9v-2.2l10-17.5H26V2.9h13V5L28.9,22.5z"/>
		<path d="M41.8,16c0-2.4,0.6-4.3,1.7-5.7c1.2-1.4,2.7-2.1,4.6-2.1s3.4,0.7,4.6,2c1.2,1.4,1.7,3.2,1.8,5.5v1.7
			c0,2.4-0.6,4.2-1.7,5.6s-2.7,2.1-4.6,2.1c-1.9,0-3.4-0.7-4.6-2c-1.1-1.3-1.7-3.2-1.8-5.4V16z M44.5,17.5c0,1.7,0.3,3,1,4
			c0.7,1,1.6,1.4,2.7,1.4c2.4,0,3.6-1.7,3.6-5.1V16c0-1.7-0.3-3-1-4s-1.6-1.5-2.7-1.5c-1.1,0-2,0.5-2.6,1.5s-1,2.3-1,4V17.5z"/>
		<path d="M60.5,8.5l0.1,1.8c1-1.4,2.4-2.1,4-2.1c2.9,0,4.4,1.9,4.4,5.8v10.9h-2.7V14.1c0-1.3-0.2-2.2-0.6-2.7s-1.1-0.8-1.9-0.8
			c-0.7,0-1.3,0.2-1.8,0.7c-0.5,0.4-1,1-1.3,1.7v11.9h-2.7V8.5H60.5z"/>
		<path d="M81.4,24.9c-0.2-0.4-0.3-0.9-0.3-1.8c-0.9,1.4-2.2,2.1-3.6,2.1c-1.5,0-2.6-0.4-3.5-1.2c-0.8-0.8-1.2-2-1.2-3.5
			c0-1.7,0.6-3,1.7-4S77,15,79,15h2v-1.7c0-1-0.2-1.7-0.7-2.1s-1.1-0.6-2-0.6c-0.8,0-1.5,0.2-2,0.7c-0.5,0.5-0.8,1.1-0.8,1.8h-2.7
			c0-0.8,0.2-1.6,0.7-2.4c0.5-0.8,1.2-1.4,2-1.8c0.8-0.4,1.8-0.7,2.8-0.7c1.7,0,2.9,0.4,3.8,1.2c0.9,0.8,1.3,2,1.3,3.6v8.3
			c0,1.3,0.2,2.4,0.5,3.3v0.2H81.4z M77.8,22.8c0.7,0,1.3-0.2,1.9-0.5c0.6-0.4,1-0.8,1.3-1.4V17h-1.5c-1.3,0-2.3,0.3-3,0.9
			c-0.7,0.6-1.1,1.3-1.1,2.3c0,0.9,0.2,1.6,0.6,2C76.3,22.6,76.9,22.8,77.8,22.8z"/>
		<path d="M87.2,16c0-2.6,0.5-4.5,1.4-5.8c0.9-1.3,2.3-2,4.1-2c1.7,0,2.9,0.7,3.8,2.1l0.1-1.8h2.4v16.5c0,2-0.5,3.6-1.6,4.7
			c-1,1.1-2.5,1.6-4.3,1.6c-0.8,0-1.7-0.2-2.7-0.6c-1-0.4-1.8-0.9-2.3-1.5l1.1-1.8c1.1,1.1,2.3,1.6,3.7,1.6c2.2,0,3.4-1.2,3.4-3.6
			v-2.1c-0.9,1.3-2.1,1.9-3.7,1.9c-1.7,0-3-0.6-4-1.9c-0.9-1.3-1.4-3.1-1.5-5.5V16z M89.9,17.5c0,1.8,0.3,3.2,0.8,4
			c0.5,0.9,1.4,1.3,2.7,1.3c1.3,0,2.3-0.7,3-2v-8.2c-0.7-1.3-1.7-2-3-2c-1.2,0-2.1,0.4-2.7,1.3c-0.5,0.9-0.8,2.2-0.8,4V17.5z"/>
		<path d="M108.9,25.2c-2,0-3.6-0.6-4.7-1.8c-1.1-1.2-1.6-3-1.7-5.4v-2c0-2.4,0.5-4.4,1.6-5.7c1.1-1.4,2.6-2.1,4.5-2.1
			c1.9,0,3.4,0.6,4.3,1.8c0.9,1.2,1.4,3.1,1.5,5.7v1.8h-9.1v0.4c0,1.8,0.3,3,1,3.8c0.7,0.8,1.6,1.2,2.9,1.2c0.8,0,1.5-0.1,2.1-0.4
			c0.6-0.3,1.2-0.8,1.7-1.4l1.4,1.7C113.1,24.4,111.3,25.2,108.9,25.2z M108.6,10.5c-1.1,0-1.9,0.4-2.5,1.1
			c-0.5,0.8-0.8,1.9-0.9,3.5h6.4v-0.4c-0.1-1.6-0.4-2.7-0.8-3.3C110.3,10.9,109.6,10.5,108.6,10.5z"/>
	</g>
	<circle class="st0" cx="21" cy="4.2" r="2.2"/>
</g>
</svg>
